<?xml version="1.0" encoding="UTF-8"?>
<svg width="128" height="128" viewBox="0 0 128 128" fill="none" xmlns="http://www.w3.org/2000/svg">
  <rect width="128" height="128" rx="24" fill="url(#gradient)"/>
  <defs>
    <linearGradient id="gradient" x1="0" y1="0" x2="128" y2="128" gradientUnits="userSpaceOnUse">
      <stop stop-color="#2a2a2a"/>
      <stop offset="1" stop-color="#1f1f1f"/>
    </linearGradient>
  </defs>
  
  <!-- Zap icon -->
  <path d="M45 25 L55 25 L48 55 L75 55 L83 25 L93 25 L85 103 L75 103 L82 73 L55 73 L47 103 L37 103 L45 25 Z" 
        fill="url(#zapGradient)" 
        stroke="url(#zapGradient)" 
        stroke-width="2"/>
  
  <defs>
    <linearGradient id="zapGradient" x1="0" y1="0" x2="1" y2="1">
      <stop stop-color="#00aaff"/>
      <stop offset="1" stop-color="#0088cc"/>
    </linearGradient>
  </defs>
  
  <!-- Glow effect -->
  <path d="M45 25 L55 25 L48 55 L75 55 L83 25 L93 25 L85 103 L75 103 L82 73 L55 73 L47 103 L37 103 L45 25 Z" 
        fill="none" 
        stroke="#00aaff" 
        stroke-width="1" 
        opacity="0.5" 
        filter="blur(2px)"/>
</svg>
